<svg width="24" height="24" viewBox="0 0 24 24" fill="none" xmlns="http://www.w3.org/2000/svg">
<path d="M11.65 2.35002L6.35996 7.64002C6.15996 7.84002 6.15996 8.15002 6.35996 8.35002L7.64995 9.64002C7.84995 9.84002 8.15996 9.84002 8.35996 9.64002L11.65 6.35002C11.85 6.15002 12.16 6.15002 12.36 6.35002L15.65 9.64002C15.85 9.84002 16.16 9.84002 16.36 9.64002L17.65 8.35002C17.85 8.15002 17.85 7.84002 17.65 7.64002L12.36 2.35002C12.16 2.16002 11.84 2.16002 11.65 2.35002Z" fill="#FFC01E"/>
<path d="M11.65 21.65L6.35996 16.36C6.15996 16.16 6.15996 15.85 6.35996 15.65L7.64995 14.36C7.84995 14.16 8.15996 14.16 8.35996 14.36L11.65 17.65C11.85 17.85 12.16 17.85 12.36 17.65L15.65 14.36C15.85 14.16 16.16 14.16 16.36 14.36L17.65 15.65C17.85 15.85 17.85 16.16 17.65 16.36L12.36 21.65C12.16 21.84 11.84 21.84 11.65 21.65Z" fill="#FFC01E"/>
<path d="M20.1 10.1L21.6399 11.64C21.8399 11.84 21.8399 12.15 21.6399 12.35L20.1 13.89C19.9 14.09 19.5899 14.09 19.3899 13.89L17.85 12.35C17.65 12.15 17.65 11.84 17.85 11.64L19.3899 10.1C19.5899 9.91002 19.91 9.91002 20.1 10.1Z" fill="#FFC01E"/>
<path d="M4.59995 10.1L6.13994 11.64C6.33994 11.84 6.33994 12.15 6.13994 12.35L4.59995 13.89C4.39995 14.09 4.08994 14.09 3.88994 13.89L2.34995 12.35C2.14995 12.15 2.14995 11.84 2.34995 11.64L3.88994 10.1C4.08994 9.91002 4.40995 9.91002 4.59995 10.1Z" fill="#FFC01E"/>
<path d="M12.35 9.87998L14.12 11.65C14.32 11.85 14.32 12.16 14.12 12.36L12.35 14.13C12.15 14.33 11.84 14.33 11.64 14.13L9.86997 12.36C9.66997 12.16 9.66997 11.85 9.86997 11.65L11.64 9.87998C11.84 9.67998 12.16 9.67998 12.35 9.87998Z" fill="#FFC01E"/>
</svg>
