<svg width="24" height="24" viewBox="0 0 24 24" fill="none" xmlns="http://www.w3.org/2000/svg">
<path d="M14.97 13.75H14.2H9.53003V16.58H10.84H14.97C15.92 16.58 16.7 15.94 16.7 15.16C16.7 14.38 15.92 13.75 14.97 13.75Z" fill="#FFC01E"/>
<path d="M12 3C6.48 3 2 7.48 2 13C2 18.52 6.48 23 12 23C17.52 23 22 18.52 22 13C22 7.48 17.52 3 12 3ZM14.97 18.08H13.32V19.5C13.32 19.91 12.98 20.25 12.57 20.25C12.16 20.25 11.82 19.91 11.82 19.5V18.08H10.84H10.61V19.5C10.61 19.91 10.27 20.25 9.86 20.25C9.45 20.25 9.11 19.91 9.11 19.5V18.08H8.78H7.05C6.64 18.08 6.3 17.74 6.3 17.33C6.3 16.92 6.64 16.58 7.05 16.58H8.03V13V9.42H7.05C6.64 9.42 6.3 9.08 6.3 8.67C6.3 8.26 6.64 7.92 7.05 7.92H8.78H9.11V6.5C9.11 6.09 9.45 5.75 9.86 5.75C10.27 5.75 10.61 6.09 10.61 6.5V7.92H10.84H11.82V6.5C11.82 6.09 12.16 5.75 12.57 5.75C12.98 5.75 13.32 6.09 13.32 6.5V7.92H14.2C15.75 7.92 17.12 9.28 17.12 10.84C17.12 11.51 16.88 12.12 16.5 12.62C17.51 13.11 18.2 14.07 18.2 15.18C18.2 16.77 16.75 18.08 14.97 18.08Z" fill="#FFC01E"/>
<path d="M15.62 10.83C15.62 10.17 15 9.41003 14.2 9.41003H10.84H9.53003V12.24H14.2C14.98 12.25 15.62 11.61 15.62 10.83Z" fill="#FFC01E"/>
</svg>
