<svg width="24" height="24" viewBox="0 0 24 24" fill="none" xmlns="http://www.w3.org/2000/svg">
<path d="M14.5 16.75H9.5C9.09 16.75 8.75 16.41 8.75 16C8.75 15.59 9.09 15.25 9.5 15.25H14.5C14.91 15.25 15.25 15.59 15.25 16C15.25 16.41 14.91 16.75 14.5 16.75Z" fill="#9E9E9E"/>
<path d="M5.19994 10.46C5.00994 10.46 4.81994 10.38 4.66994 10.24C4.45994 10.03 4.38994 9.7 4.50994 9.42L6.36994 4.98C6.40994 4.89 6.42994 4.83 6.45994 4.78C7.93994 1.37 9.82994 0.539999 13.1699 1.82C13.3599 1.89 13.5099 2.04 13.5899 2.23C13.6699 2.42 13.6699 2.63 13.5899 2.82L10.6599 9.62C10.5399 9.89 10.2699 10.07 9.96994 10.07H7.11994C6.54994 10.07 6.00994 10.18 5.48994 10.4C5.39994 10.44 5.29994 10.46 5.19994 10.46ZM10.6099 2.75C9.36994 2.75 8.60994 3.56 7.81994 5.4C7.80994 5.43 7.78994 5.46 7.77994 5.49L6.46994 8.6C6.68994 8.58 6.89994 8.57 7.11994 8.57H9.46994L11.8799 2.97C11.4099 2.82 10.9899 2.75 10.6099 2.75Z" fill="#9E9E9E"/>
<path d="M18.29 10.27C18.22 10.27 18.14 10.26 18.07 10.24C17.7 10.13 17.29 10.07 16.87 10.07H9.96998C9.71998 10.07 9.47998 9.94002 9.33998 9.73002C9.20998 9.52002 9.17998 9.25002 9.27998 9.02002L12.18 2.29002C12.33 1.93002 12.76 1.69002 13.14 1.81002C13.26 1.85002 13.37 1.90002 13.49 1.95002L15.85 2.94002C17.23 3.51002 18.15 4.11002 18.75 4.83002C18.87 4.97002 18.97 5.12002 19.06 5.27002C19.17 5.44002 19.27 5.65002 19.34 5.86002C19.37 5.93002 19.42 6.06002 19.45 6.20002C19.73 7.14002 19.59 8.31002 18.99 9.81002C18.87 10.09 18.59 10.27 18.29 10.27ZM11.11 8.57002H16.88C17.2 8.57002 17.51 8.60002 17.82 8.65002C18.1 7.78002 18.16 7.11002 18 6.57002C17.98 6.48002 17.96 6.44002 17.95 6.40002C17.89 6.24002 17.85 6.15002 17.8 6.07002C17.73 5.96002 17.68 5.87002 17.6 5.78002C17.17 5.26002 16.41 4.78002 15.28 4.32002L13.3 3.49002L11.11 8.57002Z" fill="#9E9E9E"/>
<path d="M15.9 22.7499H8.1C7.82 22.7499 7.56 22.7299 7.3 22.6999C3.79 22.4599 1.79 20.4599 1.55 16.9099C1.52 16.6899 1.5 16.4199 1.5 16.1499V14.1999C1.5 11.9499 2.84 9.91995 4.91 9.01995C5.61 8.71995 6.36 8.56995 7.13 8.56995H16.89C17.46 8.56995 18.01 8.64995 18.52 8.80995C20.87 9.51995 22.52 11.7399 22.52 14.1999V16.1499C22.52 16.3699 22.51 16.5799 22.5 16.7799C22.28 20.6899 20 22.7499 15.9 22.7499ZM7.12 10.0699C6.55 10.0699 6.01 10.1799 5.49 10.3999C3.97 11.0599 2.99 12.5499 2.99 14.1999V16.1499C2.99 16.3599 3.01 16.5699 3.03 16.7699C3.22 19.6199 4.62 21.0199 7.43 21.2099C7.68 21.2399 7.88 21.2599 8.09 21.2599H15.89C19.19 21.2599 20.81 19.8099 20.97 16.7099C20.98 16.5299 20.99 16.3499 20.99 16.1499V14.1999C20.99 12.3899 19.78 10.7699 18.06 10.2399C17.69 10.1299 17.28 10.0699 16.86 10.0699H7.12Z" fill="#9E9E9E"/>
<path d="M2.23999 14.95C1.82999 14.95 1.48999 14.61 1.48999 14.2V11.27C1.48999 8.12005 3.71999 5.40005 6.79999 4.80005C7.06999 4.75005 7.34999 4.85004 7.52999 5.06004C7.69999 5.27004 7.74999 5.57005 7.63999 5.82005L5.88999 10C5.80999 10.18 5.66999 10.32 5.49999 10.4C3.97999 11.06 2.99999 12.55 2.99999 14.2C2.98999 14.61 2.65999 14.95 2.23999 14.95ZM5.59999 6.82005C4.31999 7.54005 3.38999 8.80005 3.09999 10.27C3.53999 9.82005 4.04999 9.44004 4.62999 9.16004L5.59999 6.82005Z" fill="#9E9E9E"/>
<path d="M21.7599 14.95C21.3499 14.95 21.0099 14.61 21.0099 14.2C21.0099 12.39 19.7999 10.77 18.0799 10.24C17.8799 10.18 17.7099 10.04 17.6199 9.85002C17.5299 9.66002 17.5199 9.44002 17.5999 9.25002C18.0699 8.08002 18.1899 7.23002 17.9999 6.57002C17.9799 6.48002 17.9599 6.44002 17.9499 6.40002C17.8199 6.11002 17.8899 5.77002 18.1199 5.55002C18.3499 5.33002 18.6999 5.28002 18.9799 5.43002C21.1599 6.57002 22.5099 8.81002 22.5099 11.27V14.2C22.5099 14.61 22.1699 14.95 21.7599 14.95ZM19.2499 9.09002C19.8799 9.38002 20.4399 9.79002 20.9099 10.28C20.7199 9.30002 20.2499 8.41002 19.5599 7.71002C19.5099 8.13002 19.4099 8.59002 19.2499 9.09002Z" fill="#9E9E9E"/>
</svg>
