<svg width="467" height="465" viewBox="0 0 467 465" fill="none" xmlns="http://www.w3.org/2000/svg">
<path d="M275.333 17.2025C269.51 20.7482 244.187 35.5681 225.908 49.5074C223 51.7263 220.833 54.7679 219.692 58.244C217.322 65.4802 215.196 73.5159 214.593 75.8449C214.454 76.3837 214.524 76.9572 214.802 77.4381C216.511 80.4507 225.879 90.8212 276.92 108.874L288.901 82.9594C288.901 82.9594 281.335 34.7396 279.012 18.6335C278.774 17.0171 276.914 16.2408 275.333 17.2025Z" fill="white"/>
<path d="M390.613 307.019L327.782 314.4C317.591 315.599 308.681 321.839 304.075 331.01L275.953 387.515C274.754 389.902 272.089 391.17 269.481 390.597L259.488 388.395C252.477 386.848 245.473 391.008 243.474 397.903L241.91 403.308C241.041 406.303 242.408 409.49 245.177 410.926L291.312 434.836C294.371 436.418 298.131 435.358 299.909 432.409L346.275 356.902L410.357 352.863L390.613 307.019Z" fill="#274D76"/>
<path d="M355.052 258.77L359.635 247.276L397.542 249.309L383.771 301.353L355.052 258.77Z" fill="#274D76"/>
<path d="M350.267 230.99C350.267 230.99 354.432 220.208 354.369 214.351C354.288 206.559 355.133 190.702 350.168 191.449C347.144 191.901 346.24 199.236 345.87 202.388C345.725 203.633 345.244 204.827 344.41 205.765C343.222 207.103 341.536 207.619 340.65 201.553C339.207 191.669 339.52 172.649 333.778 176.131C330.87 177.898 332.429 195.169 330.783 194.404C329.138 193.639 329.341 167.557 322.342 170.401C320.03 171.34 320.552 183.802 321.027 190.771C321.056 191.16 320.488 191.241 320.401 190.858C319.457 186.646 318.008 180.511 316.85 176.913C315.604 173.037 312.707 175.065 312.707 177.892C312.707 183.976 313.738 196.785 313.738 196.785L350.267 230.99Z" fill="#274D76"/>
<path d="M447.569 265.595L457.998 283.555L433.665 361.768C431.382 369.7 422.31 374.647 414.164 373.292L382.844 369.816C378.823 369.144 377.381 371.206 378.788 375.03L392.305 437.05C394.599 443.289 391.042 450.149 384.617 451.87L338.013 464.326C333.5 465.531 328.993 462.379 328.581 457.727L325.899 441.719C325.789 440.497 325.441 435.59 328.216 433.608C332.272 430.712 338.645 426.656 338.645 426.656C340.794 425.503 341.014 422.056 340.383 419.704L322.678 350.853C319.787 340.083 326.49 331.735 337.492 329.904C351.396 327.586 374.571 322.372 374.571 322.372L384.495 257.629C385.799 252.49 390.544 248.974 395.845 249.229L411.07 249.953L447.569 265.595Z" fill="#FFDCE2"/>
<path d="M441.587 248.575C444.753 235.169 436.452 221.736 423.046 218.57C409.641 215.405 396.207 223.706 393.042 237.112C389.876 250.517 398.178 263.951 411.583 267.116C424.989 270.281 438.422 261.98 441.587 248.575Z" fill="#FFDCE2"/>
<path d="M190.817 242.502L273.699 167.522C277.981 163.646 284.244 163.953 289.313 166.717C299.562 172.307 317.139 182.301 332.817 199.288C345.98 213.552 367.85 236.199 370.434 255.37C370.73 257.565 369.965 259.767 368.43 261.36C343.158 287.541 291.752 335.761 286.005 340.662C272.401 352.267 237.125 326.068 217.027 302.709C208.632 292.958 180.313 252.409 190.817 242.502Z" fill="white"/>
<path d="M460.837 270.184C453.143 262.612 439.992 263.063 431.881 270.016L403.127 296.203C401.551 297.512 399.217 297.309 397.89 295.751L377.52 271.939C374.241 268.098 372.259 263.324 371.854 258.295L371.118 249.217C371.066 248.603 370.921 248 370.677 247.432L366.964 237.873C366.454 236.558 364.681 236.396 363.911 237.578C362.868 239.182 362.3 241.598 362.3 243.997C362.3 248.632 363.389 253.637 361.651 253.637C359.334 253.637 356.582 249.084 355.406 244.808C354.056 239.889 353.384 235.967 351.003 233.789C349.925 232.804 348.007 233.453 347.712 235.092C347.022 238.87 347.816 245.984 347.88 250.022C347.897 251.181 346.86 251.158 346.542 249.75C345.562 245.387 342.892 232.056 342.892 232.056C342.469 230.301 340.047 230.098 339.346 231.767C337.341 236.558 338.089 246.981 338.454 250.856C338.489 251.198 338.025 251.337 337.869 251.036C336.901 249.228 335.192 245.671 333.97 241.141C333.697 240.133 332.318 239.912 331.809 240.822C330.273 243.585 331.055 250.184 331.467 252.896C331.507 253.151 331.16 253.266 331.032 253.046C330.366 251.876 329.856 250.769 329.34 249.449C328.674 247.739 327.243 248.719 327.122 249.802C326.716 253.458 326.507 258.683 328.06 265.381C328.622 267.797 330.656 275.044 339.769 285.942L388.435 339.822C397.125 350.83 408.26 347.927 414.506 343.298C430.148 331.711 459.023 303.166 459.023 303.166C470.008 293.897 467.708 276.945 460.837 270.184Z" fill="#FFDCE2"/>
<path d="M243.208 287.211C214.124 256.123 198.962 247.16 191.558 246.332C189.919 246.146 188.499 247.427 188.511 249.078C188.598 264.222 209.93 294.47 217.021 302.721C233.208 321.544 259.262 342.209 275.889 343.455C277.164 343.548 278.195 342.441 278.05 341.178C277.042 332.291 270.02 315.872 243.208 287.211Z" fill="#F2BDBA"/>
<path d="M215.051 77.8611C217.351 83.3997 243.781 100.439 276.909 108.88L277.894 106.753C265.038 95.485 242.814 84.176 226.314 79.9178C220.265 78.3593 216.969 77.6351 215.051 77.8611Z" fill="#F2BDBA"/>
<path d="M278.49 28.3666C275.454 25.8349 271.845 24.1547 267.772 23.3726L267.992 22.2371C272.262 23.0597 276.04 24.821 279.232 27.4744L278.49 28.3666Z" fill="black"/>
<path d="M322.788 220.539L310.523 210.267C308.599 208.656 306.102 207.909 303.611 208.21C293.675 209.403 267.697 212.897 258.989 217.682C255.762 219.455 248.775 227.195 248.775 227.195C246.243 229.82 246.232 233.974 248.752 236.616L264.696 254.234C265.802 255.456 267.668 255.595 268.943 254.553L281.688 244.113C283.067 242.983 283.206 240.92 281.99 239.611L279.423 236.865C278.398 235.903 278.873 234.183 280.252 233.887L321.699 224.988C323.761 224.53 324.416 221.9 322.788 220.539ZM303.687 238.505C301.694 237.091 299.214 236.969 297.337 238.522L258.833 270.323C256.515 272.235 256.371 276.887 258.335 279.164C259.858 280.931 262.929 284.453 264.418 286.261C267.17 289.604 271.689 289.708 273.908 287.686L284.301 278.214C285.246 277.356 286.706 277.414 287.575 278.347L289.776 280.711C291.335 282.344 293.907 282.425 295.564 280.896L307.041 270.294C309.214 268.283 309.231 264.854 307.07 262.826L306.01 261.829C305.019 260.902 305.031 259.321 306.033 258.411L311.317 253.597C313.286 251.801 313.987 247.774 311.502 245.428C311.508 245.428 306.265 240.341 303.687 238.505Z" fill="#122638"/>
<path d="M219.75 80.9605C227.055 86.7135 246.151 97.1767 269.736 104.83L270.513 103.202C260.768 94.923 238.573 84.6394 220.225 79.993C219.651 79.8482 219.28 80.5955 219.75 80.9605Z" fill="black"/>
<path d="M193.47 252.351C196.784 248.157 226.065 275.473 235.989 285.595C252.976 302.911 277.645 336.427 271.7 337.991C267.998 338.965 245.096 326.138 220.92 298.81C202.525 278.011 191.425 254.941 193.47 252.351Z" fill="black"/>
<path d="M389.101 10.6441L388.244 5.44148C387.531 1.11369 383.249 -1.00675 379.113 0.464817C373.69 2.38828 366.657 4.67094 362.845 7.63724C361.332 8.81333 360.51 10.6673 360.666 12.5733C362.062 29.5079 363.661 42.7056 364.42 48.5339C364.687 50.6022 364.003 52.6821 362.555 54.1826L345.638 71.7777L362.792 80.5491L394.906 50.6254L389.101 10.6441Z" fill="#274D76"/>
<path d="M276.915 108.88L289.186 82.3394C291.312 77.7451 295.796 74.7035 300.848 74.4196L326.276 73.0118C332.533 72.6642 338.622 70.8566 344.056 67.7339C348.506 65.1789 353.981 65.2021 358.407 67.8034C361.315 69.5125 364.988 69.1938 367.561 67.0097L376.743 59.2115C377.798 58.3135 378.366 56.9752 378.279 55.5964C377.792 48.2154 376.245 24.0447 376.048 12.2606C376.019 10.621 376.94 9.10888 378.412 8.39048C384.524 5.4068 394.095 3.95262 401.43 5.20403C403.243 5.51108 404.663 7.00002 404.778 8.83658C405.271 16.878 399.779 25.493 399.779 25.493L404.616 61.8592C405.682 69.8775 402.258 77.832 395.706 82.5711L365.156 104.656C362.839 106.331 360.429 107.883 357.938 109.291C352.022 112.645 345.696 115.218 339.12 116.939L315.708 123.062L276.915 108.88Z" fill="#FFDCE2"/>
<path d="M287.442 85.0334L301.665 82.8782L312.719 94.6217L291.294 115.009L279.962 102.205L287.442 85.0334Z" fill="#274D76"/>
<path d="M322.237 78.3858C325.02 67.7366 318.644 56.8471 307.995 54.0635C297.345 51.2798 286.456 57.6561 283.672 68.3053C280.889 78.9545 287.265 89.844 297.914 92.6277C308.563 95.4113 319.453 89.035 322.237 78.3858Z" fill="#FFDCE2"/>
<path d="M251.927 66.0363L255.699 60.2138C256.336 59.2289 255.948 57.908 254.876 57.4271L253.3 56.7203C252.35 56.2915 252.228 54.9938 253.086 54.397L269.928 42.723C270.779 42.1321 270.588 40.8228 269.603 40.4925L261.892 37.9492C260.977 37.6479 259.98 37.7811 259.175 38.3141L242.594 49.2929C241.574 49.965 240.751 50.892 240.195 51.9753L237.866 56.5175C236.69 58.8117 237.698 61.6216 240.062 62.6413L249.557 66.7489C250.421 67.1255 251.423 66.8184 251.927 66.0363ZM271.839 63.464L270.982 62.931C270.217 62.4559 269.928 61.4884 270.298 60.6715L271.434 58.1802C272.1 56.7203 271.532 54.9938 270.13 54.2117L266.324 52.0912C264.829 51.2627 262.946 51.8015 262.129 53.3021L250.629 74.2631C249.865 75.6594 250.287 77.409 251.608 78.3013L255.681 81.0416C257.182 82.0497 259.227 81.5514 260.102 79.9698L263.398 73.9619C263.891 73.0697 265.026 72.7684 265.895 73.2956L266.347 73.5737C267.338 74.182 268.636 73.8112 269.157 72.7742L272.558 66.0537C273.033 65.1325 272.714 64.0086 271.839 63.464Z" fill="#122638"/>
<path d="M337.023 83.3358C331.449 78.3591 322.95 78.6546 317.73 83.9962L302.215 99.8822C301.004 101.122 299.22 101.614 297.546 101.174L274.481 95.1199C272.888 94.7027 271.446 93.8453 270.316 92.646L263.694 85.6242C263.143 85.0391 262.153 85.1434 261.799 85.8618C261.434 86.5975 261.208 87.8026 261.585 89.755C262.419 94.1002 259.899 94.0886 257.338 92.0377C256.017 90.9833 253.972 89.3379 252.304 87.988C251.035 86.9625 249.164 87.8779 249.158 89.5059C249.146 91.4873 249.43 93.7584 250.571 95.0272C248.242 102.014 252.153 110.311 258.346 113.659C265.496 117.524 304.029 129.429 304.029 129.429C307.771 130.536 311.821 129.499 314.573 126.735L337.614 103.596C343.268 97.9297 342.996 88.6716 337.023 83.3358Z" fill="#FFDCE2"/>
<path d="M290.906 60.1385C288.438 61.9287 286.514 64.5068 285.373 67.5774C282.801 74.5007 285.228 81.9397 290.651 86.3833C293.571 88.776 298.026 89.3438 302.453 86.6092C305.332 84.8306 307.51 81.9686 308.773 78.5736C310.986 72.6236 309.492 66.4535 305.541 62.033C302.296 58.412 295.019 57.149 290.906 60.1385Z" fill="black"/>
<path d="M146.629 284.552C144.416 276.116 141.954 265.248 140.656 261.557C140.604 261.412 140.424 261.013 140.291 260.926C139.127 260.149 132.29 256.876 124.376 258.197C121.925 258.608 113.513 257.826 110.147 260.381C109.104 261.169 108.71 262.502 108.618 263.805C108.143 270.833 106.972 292.547 107.169 299.876C107.204 301.191 108.108 302.373 109.4 302.634C123.658 305.536 140.239 304.198 147.626 298.619C148.443 297.999 148.9 297.02 148.808 295.994C148.622 294.03 148.112 290.201 146.629 284.552Z" fill="white"/>
<path d="M65.1603 228.279L41.6037 220.915C40.3812 220.533 39.6165 219.316 39.7961 218.048L43.4344 192.596C43.6894 190.8 42.4437 189.138 40.6477 188.877L25.9321 186.629C25.2427 186.531 23.7595 187.046 23.7595 189.028C23.7595 189.995 24.026 190.534 24.5185 191.125L27.1777 194.329C27.676 194.925 27.8903 195.713 27.7629 196.478L24.617 215.945L35.3872 238.881L61.5567 241.679L65.1603 228.279Z" fill="#274D76"/>
<path d="M18.6206 195.441L39.095 227.647C39.6454 228.516 40.526 229.131 41.5283 229.357L46.1168 230.376C47.6405 230.712 49.2337 230.446 50.5605 229.635L52.3333 228.551C55.85 226.396 60.1314 225.892 64.0536 227.172L92.1408 236.332L83.9313 261.934L56.2381 255.178C53.8338 254.593 51.47 253.875 49.1468 253.023C45.6939 251.76 40.6419 249.831 37.5655 248.319C29.6341 244.42 27.0328 241.384 25.7409 238.962C21.6332 231.263 11.483 213.812 10.2026 211.75C8.53983 209.073 4.88408 208.842 2.94324 208.338C1.74397 208.025 0.863357 207.497 0.376699 206.356L0.12758 205.777C-0.167891 205.087 0.0638585 204.288 0.677975 203.859L14.1306 194.462C15.6253 193.419 17.6936 193.865 18.6206 195.441Z" fill="#FFDCE2"/>
<path d="M104.667 253.858L129.451 253.84C131.473 253.829 133.559 254.431 134.625 255.654C135.262 256.384 136.398 257.959 137 258.718C137.418 259.251 137.267 259.941 136.664 259.796L133.658 258.718L134.19 260.561C134.555 261.557 133.646 262.009 132.875 261.621L129.88 260.207C129.955 261.042 129.075 261.633 128.327 261.244C126.949 260.526 126.421 260.063 124.515 258.765C124.04 258.446 123.478 258.284 122.905 258.313C117.795 258.568 114.191 259.205 111.074 260.48C108.763 261.424 108.705 263.828 108.664 264.581C108.595 265.85 106.88 269.651 106.88 269.651L90.7446 266.331L87.8884 255.59L104.667 253.858Z" fill="#274D76"/>
<path d="M95.2463 256.72C102.273 256.72 107.969 250.785 107.969 243.464C107.969 236.143 102.273 230.208 95.2463 230.208C88.2198 230.208 82.5237 236.143 82.5237 243.464C82.5237 250.785 88.2198 256.72 95.2463 256.72Z" fill="#FFDCE2"/>
<path d="M100.779 274.761C100.779 274.761 92.9519 288.584 91.7758 296.753C91.3992 299.383 93.3169 301.799 95.9587 302.112C98.2993 302.385 101.92 302.518 107.372 302.083C106.584 299.621 108.38 277.733 109.151 268.886C109.255 267.699 107.789 267.061 106.984 267.942L100.779 274.761Z" fill="white"/>
<path d="M127.499 268.174C129.173 271.661 135.494 284.969 136.844 290.311C137.012 290.971 136.491 291.597 135.813 291.556C129.631 291.145 123.664 292.049 121.12 292.512C120.471 292.628 119.892 292.101 119.944 291.446L121.671 270.132C121.7 269.755 121.943 269.425 122.291 269.286L126.213 267.687C126.705 267.484 127.267 267.699 127.499 268.174Z" fill="white"/>
<path d="M135.39 286.006C132.528 278.521 127.088 267.328 127.088 267.328L125.807 267.849L131.879 291.452C133.565 291.435 135.326 291.539 137.087 291.707C137.006 290.583 136.34 288.503 135.39 286.006Z" fill="#122638"/>
<path d="M137.093 291.707C137.087 291.608 132.418 287.819 132.418 287.819C131.618 287.211 130.54 287.13 129.666 287.611L120.541 292.611C122.742 292.188 129.915 291.011 137.093 291.707Z" fill="#274D76"/>
<path d="M90.93 247.357C90.7156 249.669 91.2313 251.841 92.2568 253.666C92.9462 254.889 94.2439 255.677 95.6518 255.677C95.6576 255.677 95.6691 255.677 95.6749 255.677C102.013 255.677 107.152 250.324 107.152 243.719C107.152 243.707 107.152 243.69 107.152 243.678C107.14 240.892 105.147 238.522 102.511 238.082C101.706 237.949 100.866 237.914 100.003 237.989C95.2404 238.424 91.3877 242.404 90.93 247.357Z" fill="black"/>
<path d="M131.977 269.865L129.243 270.184C129.023 270.207 128.913 269.929 129.086 269.796L131.381 268.063C132.279 267.385 131.74 265.96 130.622 266.047C128.136 266.238 124.932 266.505 122.644 266.748C122.267 266.789 122.099 266.279 122.43 266.088C123.455 265.503 123.994 265.219 125.06 264.622C126.584 263.765 125.083 262.559 123.339 262.623C120.077 262.751 116.827 264.715 114.353 264.715C109.881 264.715 97.4999 264.112 97.4999 264.112C96.5208 264.077 95.6112 263.579 95.0608 262.768L85.0032 247.884C82.1875 244.165 76.8748 243.475 73.2075 246.355C69.7256 249.084 68.9782 254.06 71.51 257.693L86.2372 276.562C87.5987 278.306 89.667 279.361 91.8801 279.436L123.947 278.949C127.771 278.955 130.459 275.491 130.801 273.689C131.786 273.023 132.487 272.293 132.991 271.632C133.576 270.856 132.951 269.749 131.977 269.865Z" fill="#FFDCE2"/>
<path d="M92.5174 132.766C92.5174 132.766 95.2404 142.998 102.106 156.868C111.839 176.525 116.59 184.399 121.595 192.84C127.69 203.118 146.299 213.54 182.202 191.299C219.402 168.258 213.73 153.079 211.262 147.795C209.802 144.666 197.954 122.523 188.123 105.716C184.287 99.1581 180.666 93.5557 178.256 89.9405C176.252 86.9336 173.03 84.9812 169.438 84.5757C159.647 83.4691 138.906 83.5792 117.58 99.0306C88.178 120.339 92.5174 132.766 92.5174 132.766Z" fill="white"/>
<path d="M212.757 159.046C213.736 154.104 211.604 149.052 207.45 146.19C196.917 138.925 176.286 138.612 150.129 155.135C121.387 173.292 120.721 188.657 124.996 197.167C133.374 205.435 151.438 210.354 182.196 191.299C204.24 177.649 211.227 166.757 212.757 159.046Z" fill="#F2BDBA"/>
<path d="M130.378 196.606C126.804 191.49 126.734 175.465 153.564 158.206C180.608 140.808 204.333 145.756 207.821 155.135C211.308 164.515 191.877 181.693 170.232 192.689C150.65 202.642 134.341 202.277 130.378 196.606Z" fill="black"/>
<path d="M107.146 298.364C104.788 298.358 102.303 298.485 99.8174 298.682C94.2208 299.128 93.4677 300.89 93.9949 301.428C94.4874 301.933 95.2347 302.205 95.9589 302.286C98.2995 302.558 103.131 302.715 108.276 302.112C107.146 300.867 107.152 300.264 107.146 298.364Z" fill="black"/>
<path d="M146.502 263.869C144.827 261.801 143.871 262.056 140.812 262.009C142.11 266.493 144.37 275.943 146.629 284.558C148.889 293.167 148.9 297.547 148.9 297.547C151.739 297.17 154.028 296.747 159.584 295.815C164.12 295.05 164.525 291.296 162.179 287.82L146.502 263.869Z" fill="white"/>
<path d="M146.681 299.285C147.006 298.462 146.473 297.639 145.111 296.967C142.406 295.623 137.11 294.569 126.792 295.148C117.279 295.681 112.453 298.033 110.026 300.107C108.728 301.22 108.815 302.077 109.962 302.772C124.26 306.243 139.051 304.308 146.681 299.285Z" fill="#F2BDBA"/>
<path d="M160.175 295.919C161.322 295.623 161.501 294.395 160.905 293.966C160.65 293.787 160.348 293.601 159.989 293.416C157.168 291.968 152.66 291.985 148.35 292.501C148.894 295.849 148.993 296.655 148.379 297.79C151.89 297.547 159.833 296.006 160.175 295.919Z" fill="black"/>
<path d="M126.78 129.377C125.095 125.136 125.042 120.409 127.03 117.309C127.493 116.585 128.345 115.403 127.916 114.662L124.185 109.251C123.397 107.883 121.34 108.741 120.396 110.01C115.744 116.284 114.006 124.459 117.482 133.184C122.586 146.016 132.064 149.771 141.832 147.384C143.414 146.996 144.184 145.205 143.367 143.798L140.517 139.076C139.891 137.992 138.692 137.396 137.441 137.494C133.223 137.836 129.052 135.078 126.78 129.377ZM154.607 114.239C147.22 102.542 135.482 100.757 127.794 103.677C126.45 104.187 125.842 105.745 126.56 106.991L130.755 112.675C131.253 113.532 132.238 113.949 133.206 113.764C137.307 112.97 142.348 114.557 145.667 119.575C148.303 123.561 148.298 129.8 144.115 133.809C143.199 134.69 143.292 136.202 143.929 137.303L146.606 141.92C147.666 143.745 150.036 143.919 151.652 142.569C159.23 136.243 159.786 122.442 154.607 114.239Z" fill="#122638"/>
<path d="M320.088 113.422C319.688 113.422 319.283 113.318 318.912 113.103C316.073 111.452 310.952 108.225 308.547 105.23C307.87 104.384 307.887 103.15 308.6 102.292L316.125 93.2197C316.919 92.2579 318.327 92.0899 319.329 92.8315C321.693 94.5869 325.998 97.8313 328.286 99.8591C329.207 100.676 329.352 102.032 328.622 103.017C325.992 106.574 323.367 110.421 322.041 112.391C321.583 113.057 320.841 113.422 320.088 113.422ZM317.927 93.5267C317.585 93.5267 317.244 93.6716 317.012 93.9554L309.486 103.028C309.127 103.463 309.109 104.077 309.451 104.5C311.827 107.46 317.267 110.803 319.497 112.101C320.036 112.414 320.725 112.257 321.073 111.742C322.411 109.76 325.042 105.902 327.684 102.321C328.049 101.823 327.979 101.134 327.51 100.722C325.256 98.7235 320.98 95.5023 318.628 93.7585C318.42 93.602 318.171 93.5267 317.927 93.5267Z" fill="black"/>
<path d="M429.592 319.672C429.447 319.672 429.302 319.667 429.152 319.649C427.947 319.533 426.863 318.948 426.104 318.01L413.619 302.512C412.136 300.669 412.35 297.987 414.1 296.4L427.9 283.926C428.81 283.103 429.98 282.698 431.197 282.785C432.419 282.872 433.52 283.434 434.308 284.366L447.517 300.107C449.099 301.99 448.85 304.806 446.973 306.388L432.454 318.612C431.643 319.307 430.641 319.672 429.592 319.672ZM414.882 297.263C413.584 298.439 413.428 300.42 414.523 301.788L427.008 317.285C427.57 317.981 428.37 318.415 429.262 318.502C430.154 318.589 431.023 318.317 431.707 317.743L446.225 305.519C447.616 304.348 447.795 302.263 446.631 300.866L433.422 285.125C432.842 284.43 432.02 284.013 431.116 283.955C430.212 283.897 429.343 284.193 428.677 284.801L414.882 297.263Z" fill="black"/>
<path d="M361.39 292.495L360.486 291.771L366.993 283.608C367.375 283.127 367.242 282.623 366.987 282.31C366.732 281.997 366.263 281.765 365.712 282.043L358.36 285.826C357.398 286.319 356.309 286.081 355.637 285.241C354.965 284.401 354.988 283.283 355.684 282.46L362.225 274.738C362.63 274.257 362.497 273.741 362.242 273.422C361.981 273.104 361.512 272.86 360.956 273.156L342.005 282.802L341.478 281.771L360.423 272.125C361.373 271.621 362.474 271.852 363.146 272.692C363.824 273.538 363.806 274.656 363.111 275.485L356.57 283.208C356.164 283.683 356.292 284.198 356.547 284.517C356.802 284.836 357.271 285.079 357.827 284.795L365.173 281.012C366.118 280.525 367.201 280.751 367.873 281.568C368.545 282.385 368.551 283.497 367.891 284.326L361.39 292.495Z" fill="black"/>
<path d="M392.932 304.508L384.475 327.311L385.562 327.714L394.018 304.91L392.932 304.508Z" fill="black"/>
<path d="M406.199 309.461L405.106 309.846L414.86 337.559L415.953 337.175L406.199 309.461Z" fill="black"/>
<path d="M405.795 328.647L404.649 328.816L406.661 342.44L407.807 342.271L405.795 328.647Z" fill="black"/>
<path d="M392.758 323.394L390.675 334.31L391.813 334.527L393.897 323.612L392.758 323.394Z" fill="black"/>
<path d="M300.024 104.577L299.006 105.129L309.518 124.499L310.536 123.946L300.024 104.577Z" fill="black"/>
<path d="M300.09 114.87L298.977 115.19L302.223 126.482L303.337 126.162L300.09 114.87Z" fill="black"/>
<path d="M294.85 106.413L293.845 123.382L295.002 123.451L296.007 106.481L294.85 106.413Z" fill="black"/>
<path d="M264.227 112.993L263.108 112.692L266.086 101.557C266.272 100.856 266.903 100.421 267.627 100.496C268.346 100.572 268.873 101.134 268.914 101.852L269.244 108.52C269.255 108.706 269.383 108.764 269.464 108.781C269.545 108.799 269.684 108.804 269.771 108.636L274.07 100.155L275.101 100.676L270.808 109.158C270.507 109.749 269.875 110.05 269.226 109.911C268.578 109.772 268.126 109.239 268.091 108.578L267.761 101.91C267.749 101.701 267.598 101.655 267.512 101.649C267.425 101.638 267.268 101.655 267.216 101.852L264.227 112.993Z" fill="black"/>
<path d="M383.337 54.6854L383.155 55.8296L400.112 58.5325L400.295 57.3882L383.337 54.6854Z" fill="black"/>
<path d="M384.502 59.8755L384.08 60.9548L400 67.1725L400.422 66.0932L384.502 59.8755Z" fill="black"/>
<path d="M384.726 64.3501L383.848 65.106L395.106 78.1883L395.984 77.4325L384.726 64.3501Z" fill="black"/>
<path d="M367.474 374.972L367.41 374.966L334.282 371.177L334.416 370.024L367.508 373.807C368.308 373.796 368.742 373.245 368.887 372.735C369.032 372.22 368.934 371.513 368.227 371.096L330.105 353.101C328.917 352.394 328.471 351.067 328.97 349.839C329.468 348.611 330.719 347.968 332.005 348.281L362.242 355.007C363.111 355.216 363.685 354.706 363.916 354.202C364.142 353.709 364.165 352.962 363.493 352.44L338.164 339.921L338.68 338.884L364.142 351.479C365.336 352.354 365.417 353.721 364.971 354.688C364.525 355.656 363.43 356.479 361.987 356.137L331.751 349.41C330.841 349.19 330.267 349.741 330.047 350.279C329.827 350.812 329.856 351.606 330.65 352.081L368.771 370.076C369.861 370.725 370.324 371.878 370.005 373.048C369.675 374.218 368.684 374.972 367.474 374.972Z" fill="black"/>
<path d="M82.1643 265.653C82.0426 265.653 81.921 265.647 81.7993 265.63C81.0751 265.526 80.432 265.114 80.0323 264.5L76.9964 259.848C76.2375 258.689 76.5561 257.113 77.709 256.343L81.7587 253.626C82.9174 252.849 84.4933 253.156 85.2754 254.304L88.0853 258.417C88.8211 259.495 88.6241 260.943 87.6334 261.789L83.8155 265.045C83.352 265.445 82.7668 265.653 82.1643 265.653ZM83.1782 254.361C82.9117 254.361 82.6452 254.437 82.4076 254.593L78.3579 257.31C77.7322 257.733 77.5584 258.585 77.9698 259.222L81.0056 263.874C81.2257 264.211 81.5734 264.431 81.9673 264.489C82.3671 264.547 82.761 264.431 83.0623 264.17L86.8802 260.914C87.419 260.451 87.5291 259.663 87.1236 259.077L84.3137 254.964C84.0588 254.57 83.6185 254.361 83.1782 254.361Z" fill="black"/>
<path d="M93.1473 266.094L86.8044 272.741L87.6428 273.541L93.9856 266.893L93.1473 266.094Z" fill="black"/>
<path d="M91.2149 272.187L89.5242 275.604L90.5627 276.118L92.2534 272.701L91.2149 272.187Z" fill="black"/>
<path d="M95.8502 265.969L93.4856 277.253L94.6196 277.491L96.9843 266.207L95.8502 265.969Z" fill="black"/>
<path d="M109.041 275.079C109.012 275.079 108.989 275.079 108.96 275.079C108.189 275.045 107.534 274.552 107.291 273.822L106.26 270.705L107.361 270.34L108.392 273.457C108.531 273.869 108.896 273.921 109.006 273.921C109.116 273.921 109.487 273.909 109.661 273.509L110.663 271.163C110.906 270.595 111.41 270.19 112.019 270.08C112.627 269.969 113.241 270.161 113.67 270.601L116.7 273.706C116.966 273.979 117.291 273.95 117.511 273.828C117.731 273.706 117.934 273.446 117.847 273.075L116.439 267.049L117.569 266.789L118.977 272.814C119.168 273.625 118.803 274.442 118.073 274.842C117.337 275.242 116.456 275.108 115.871 274.512L112.841 271.406C112.679 271.238 112.453 271.169 112.233 271.215C112.007 271.256 111.822 271.406 111.735 271.615L110.732 273.961C110.437 274.651 109.782 275.079 109.041 275.079Z" fill="black"/>
<path d="M34.355 228.63L26.0581 231.477L26.4342 232.573L34.7311 229.726L34.355 228.63Z" fill="black"/>
<path d="M32.0598 232.324L27.5991 236.039L28.3407 236.929L32.8013 233.214L32.0598 232.324Z" fill="black"/>
<path d="M35.3662 232.548L31.8987 241.469L32.9787 241.889L36.4463 232.968L35.3662 232.548Z" fill="black"/>
<path d="M4.28744 206.553C4.15998 206.553 4.02674 206.542 3.89928 206.513L2.89697 206.292L3.14609 205.163L4.1484 205.383C4.33379 205.423 4.52497 205.383 4.6756 205.279C4.83202 205.169 4.93054 205.006 4.95371 204.815L5.05799 204.004C5.12751 203.488 5.41138 203.025 5.84011 202.729C6.26883 202.434 6.80762 202.341 7.31166 202.463L9.30464 202.955C9.519 203.008 9.73917 202.955 9.90139 202.811C10.0694 202.666 10.1505 202.457 10.1332 202.237L10.0346 201.125C9.98249 200.534 10.2084 199.966 10.6545 199.578C11.1007 199.19 11.6916 199.039 12.2709 199.178L13.5745 199.485C13.7888 199.537 14.0032 199.479 14.1712 199.334C14.3335 199.19 14.4204 198.981 14.3972 198.761C14.3335 198.124 14.6 197.515 15.1098 197.127C15.6196 196.739 16.2801 196.646 16.8768 196.878L18.3716 197.452L17.9544 198.535L16.4597 197.961C16.2395 197.874 16.002 197.909 15.8108 198.054C15.6196 198.199 15.5269 198.419 15.5501 198.657C15.608 199.253 15.3821 199.815 14.936 200.209C14.4899 200.603 13.8932 200.754 13.3138 200.615L12.0103 200.308C11.7959 200.261 11.5815 200.314 11.4135 200.453C11.2513 200.597 11.1644 200.8 11.1875 201.02L11.2861 202.133C11.3382 202.724 11.1064 203.303 10.6545 203.685C10.2027 204.068 9.59432 204.218 9.02076 204.074L7.02778 203.581C6.84239 203.535 6.6512 203.57 6.48898 203.68C6.32676 203.79 6.22827 203.952 6.1993 204.149L6.09503 204.96C6.0255 205.464 5.7532 205.922 5.33027 206.217C5.02901 206.437 4.66402 206.553 4.28744 206.553Z" fill="black"/>
<path d="M382.508 17.6253C382.49 17.6253 382.479 17.6253 382.461 17.6253C381.87 17.6079 381.361 17.2603 381.129 16.7215L380.19 14.5431C380.109 14.3577 379.947 14.3345 379.877 14.3345C379.877 14.3345 379.877 14.3345 379.872 14.3345C379.802 14.3345 379.634 14.3577 379.559 14.5489L378.51 17.1676L377.433 16.7389L378.481 14.1202C378.707 13.5524 379.246 13.1874 379.854 13.1758C379.86 13.1758 379.866 13.1758 379.872 13.1758C380.474 13.1758 381.013 13.5292 381.251 14.0796L382.189 16.258C382.264 16.4376 382.427 16.4608 382.496 16.4666C382.56 16.4666 382.722 16.455 382.809 16.2754L383.487 14.9197C383.713 14.4678 384.147 14.1607 384.646 14.1028C385.15 14.0391 385.642 14.2303 385.967 14.6184L387.085 15.922C387.206 16.061 387.357 16.0436 387.415 16.0321C387.473 16.0205 387.618 15.9741 387.67 15.7945L388.348 13.5292C388.498 13.031 388.886 12.6486 389.396 12.5096C389.9 12.3705 390.433 12.5038 390.81 12.863L393 14.9139C393.127 15.0356 393.278 15.0124 393.336 14.9892C393.394 14.9718 393.527 14.9139 393.568 14.7401L393.996 12.8862C394.118 12.3705 394.483 11.965 394.987 11.797C395.491 11.6289 396.03 11.739 396.43 12.0808L398 13.4192C398.139 13.535 398.284 13.5003 398.342 13.4771C398.399 13.4539 398.533 13.3902 398.562 13.2106L398.857 11.374C398.944 10.8294 399.326 10.3775 399.848 10.1979C400.375 10.0183 400.949 10.14 401.354 10.5166C401.505 10.6556 401.661 10.6035 401.725 10.5803C401.789 10.5514 401.928 10.4702 401.928 10.2675V8.94653H403.086V10.2675C403.086 10.8758 402.745 11.3972 402.188 11.6405C401.632 11.8839 401.012 11.7796 400.566 11.3682C400.433 11.2408 400.282 11.2755 400.224 11.2987C400.167 11.3161 400.027 11.3856 399.998 11.5652L399.703 13.4018C399.616 13.9406 399.257 14.3809 398.741 14.5721C398.226 14.7633 397.669 14.6648 397.252 14.3056L395.682 12.9673C395.549 12.8572 395.41 12.8862 395.352 12.9035C395.3 12.9209 395.167 12.9846 395.126 13.1527L394.697 15.0066C394.576 15.5338 394.193 15.9451 393.672 16.1074C393.151 16.2638 392.606 16.1363 392.206 15.7655L390.016 13.7146C389.889 13.5988 389.75 13.6219 389.692 13.6335C389.634 13.6509 389.501 13.703 389.454 13.8653L388.776 16.1305C388.62 16.6578 388.185 17.0517 387.652 17.1676C387.114 17.2835 386.557 17.0923 386.204 16.6751L385.086 15.3716C384.976 15.2441 384.843 15.2499 384.785 15.2557C384.732 15.2615 384.593 15.2963 384.518 15.4411L383.84 16.7968C383.591 17.3066 383.081 17.6253 382.508 17.6253Z" fill="black"/>
<path d="M380.811 8.81771L380.228 9.8186L385.757 13.0439L386.341 12.043L380.811 8.81771Z" fill="black"/>
<path d="M386.019 6.68652L385.456 7.69946L392.643 11.6916L393.206 10.6787L386.019 6.68652Z" fill="black"/>
<path d="M392.589 5.97459L392.093 7.02148L398.007 9.82741L398.504 8.78051L392.589 5.97459Z" fill="black"/>
<path d="M332.782 457.738L331.716 457.287L333.489 453.115C333.917 452.107 334.763 451.36 335.818 451.059C336.872 450.757 337.984 450.948 338.882 451.58L340.725 452.878C341.368 453.33 342.162 453.451 342.909 453.196C343.656 452.947 344.218 452.374 344.462 451.626L344.78 450.636C345.14 449.506 346.038 448.631 347.167 448.289C348.297 447.947 349.531 448.185 350.452 448.921L352.324 450.41C352.967 450.919 353.784 451.076 354.566 450.833C355.348 450.595 355.939 450.004 356.182 449.222L356.663 447.675C357.016 446.54 357.868 445.676 359.003 445.317C360.139 444.952 361.332 445.161 362.283 445.879L364.432 447.507C365.081 448 365.898 448.139 366.674 447.884C367.45 447.629 368.024 447.032 368.256 446.25L369.061 443.509C369.415 442.31 370.341 441.395 371.547 441.053C372.746 440.717 374.02 441.018 374.947 441.858L376.674 443.428C377.317 444.014 378.203 444.216 379.038 443.956C379.872 443.701 380.492 443.04 380.7 442.194C381.007 440.931 381.934 439.952 383.186 439.587C384.431 439.222 385.741 439.535 386.685 440.433L389.373 442.988L388.574 443.828L385.886 441.273C385.242 440.665 384.356 440.451 383.51 440.7C382.664 440.949 382.033 441.609 381.824 442.472C381.523 443.724 380.608 444.691 379.379 445.068C378.151 445.445 376.848 445.155 375.897 444.286L374.171 442.716C373.545 442.142 372.682 441.939 371.865 442.171C371.048 442.403 370.417 443.023 370.179 443.834L369.374 446.574C369.038 447.71 368.169 448.608 367.045 448.979C365.915 449.349 364.681 449.141 363.737 448.428L361.587 446.8C360.944 446.314 360.133 446.175 359.363 446.418C358.592 446.661 358.013 447.246 357.775 448.017L357.294 449.564C356.941 450.699 356.049 451.586 354.913 451.939C353.778 452.287 352.544 452.055 351.611 451.313L349.74 449.824C349.102 449.315 348.291 449.158 347.509 449.396C346.727 449.633 346.136 450.213 345.887 450.989L345.568 451.98C345.215 453.086 344.381 453.926 343.28 454.297C342.179 454.668 341.009 454.494 340.059 453.822L338.216 452.524C337.608 452.096 336.855 451.968 336.136 452.171C335.424 452.374 334.844 452.883 334.555 453.567L332.782 457.738Z" fill="black"/>
<path d="M294.921 429.031H293.762V423.475C293.762 422.711 293.368 422.027 292.714 421.639C292.059 421.251 291.265 421.239 290.599 421.604L288.148 422.954C287.117 423.522 285.895 423.504 284.886 422.902C283.873 422.305 283.27 421.245 283.27 420.069V418.157C283.27 417.433 282.922 416.784 282.32 416.378C281.717 415.973 280.982 415.903 280.315 416.187L277.169 417.502C276.15 417.931 274.991 417.821 274.076 417.207C273.154 416.593 272.604 415.567 272.604 414.466V413.835C272.604 413.111 272.262 412.468 271.66 412.062C271.057 411.657 270.327 411.581 269.661 411.859L266.648 413.093C265.629 413.511 264.476 413.395 263.566 412.781C262.651 412.166 262.106 411.147 262.106 410.046C262.106 409.316 261.759 408.667 261.15 408.267C260.542 407.862 259.806 407.798 259.14 408.082L256.799 409.073C255.895 409.455 254.882 409.415 254.013 408.968C253.144 408.522 252.518 407.723 252.304 406.767L252.002 405.446C251.857 404.82 251.452 404.299 250.884 404.015C250.311 403.725 249.65 403.708 249.065 403.969L244.905 405.794L244.442 404.733L248.601 402.908C249.505 402.514 250.531 402.538 251.411 402.984C252.292 403.43 252.923 404.235 253.144 405.197L253.445 406.518C253.584 407.138 253.989 407.653 254.551 407.943C255.113 408.233 255.774 408.256 256.359 408.012L258.7 407.022C259.719 406.587 260.878 406.697 261.805 407.311C262.726 407.926 263.276 408.951 263.276 410.058C263.276 410.782 263.618 411.425 264.221 411.83C264.823 412.236 265.548 412.305 266.22 412.033L269.232 410.799C270.252 410.382 271.405 410.498 272.314 411.112C273.23 411.726 273.774 412.746 273.774 413.847V414.478C273.774 415.202 274.122 415.851 274.725 416.257C275.327 416.662 276.063 416.732 276.729 416.448L279.875 415.133C280.895 414.71 282.053 414.82 282.969 415.428C283.89 416.042 284.435 417.068 284.435 418.169V420.08C284.435 420.845 284.829 421.529 285.483 421.917C286.138 422.305 286.932 422.317 287.598 421.952L290.049 420.602C291.08 420.034 292.302 420.051 293.31 420.654C294.324 421.251 294.927 422.311 294.927 423.487V429.031H294.921Z" fill="black"/>
<path d="M425.2 251.413C419.847 260.103 405.595 264.657 398.654 255.318C390.943 244.935 396.441 222.856 412.489 221.929C416.151 221.715 419.801 222.914 422.686 225.301C430.009 231.367 431.203 241.668 425.2 251.413Z" fill="black"/>
<path d="M406.899 239.907C404.929 245.996 402.669 252.728 399.836 249.275C398.075 247.125 397.003 241.958 398.261 237.045C399.251 233.175 402.021 229.461 404.772 227.514C406.198 226.506 407.64 226.274 408.793 226.889C411.736 228.447 409.106 233.076 406.899 239.907Z" fill="#74BAAB"/>
<path d="M295.639 70.7871C292.667 73.9677 289.325 77.4496 287.951 73.8229C287.1 71.5692 287.5 67.6006 289.643 64.8834C291.329 62.7398 294.353 61.5232 296.943 61.4826C298.287 61.4652 299.452 61.9751 300.205 62.9194C302.105 65.3237 298.971 67.2182 295.639 70.7871Z" fill="#74BAAB"/>
<path d="M101.457 245.445C101.497 243.365 101.578 241.06 103.172 241.906C104.162 242.433 106.068 246.61 103.884 249.165C103.473 249.646 102.865 249.796 102.314 249.698C100.918 249.455 101.41 247.774 101.457 245.445Z" fill="#74BAAB"/>
<path d="M143.141 299.493C143.39 298.955 142.944 298.427 141.832 298.016C139.613 297.199 135.297 296.614 126.925 297.193C119.208 297.726 115.332 299.354 113.391 300.751C112.354 301.498 112.435 302.06 113.386 302.483C125.054 304.464 137.029 302.912 143.141 299.493Z" fill="black"/>
<path d="M345.951 249.877C344.983 245.561 342.324 232.3 342.295 232.166L343.43 231.94C343.459 232.074 346.113 245.318 347.08 249.622L345.951 249.877Z" fill="black"/>
<path d="M357.694 251.285C356.501 249.553 355.458 247.247 354.832 244.964C354.612 244.165 354.409 243.388 354.218 242.641C353.239 238.893 352.468 235.926 350.597 234.217L351.379 233.36C353.505 235.301 354.316 238.412 355.342 242.346C355.533 243.087 355.736 243.858 355.956 244.651C356.553 246.818 357.532 248.997 358.656 250.625L357.694 251.285Z" fill="black"/>
<path d="M363.192 251.551L362.034 251.517C362.063 250.607 361.976 249.419 361.889 248.162C361.802 246.87 361.698 245.41 361.698 243.997C361.698 241.419 362.335 238.904 363.401 237.259L364.374 237.89C363.424 239.356 362.856 241.633 362.856 243.997C362.856 245.364 362.949 246.749 363.042 248.081C363.134 249.367 363.221 250.584 363.192 251.551Z" fill="black"/>
<path d="M400.729 297.634C399.5 297.634 398.29 297.118 397.438 296.127L387.792 284.853L388.672 284.1L398.319 295.374C399.437 296.684 401.424 296.857 402.751 295.757L431.487 269.587C433.063 268.237 434.835 267.107 436.765 266.227L437.246 267.281C435.415 268.116 433.735 269.187 432.251 270.456L403.51 296.631C402.699 297.303 401.708 297.634 400.729 297.634Z" fill="black"/>
<path d="M402.64 348.032C397.687 348.032 392.467 345.894 387.96 340.181L376.859 327.893L377.717 327.117L388.846 339.434C396.992 349.752 407.565 347.707 414.141 342.835C419.401 338.936 426.724 332.702 435.907 324.301L436.689 325.159C427.477 333.583 420.12 339.845 414.83 343.768C411.481 346.241 407.171 348.032 402.64 348.032Z" fill="black"/>
<path d="M330.505 253.33C329.862 252.201 329.329 251.071 328.779 249.657L329.862 249.24C330.395 250.613 330.887 251.668 331.513 252.757L330.505 253.33Z" fill="black"/>
<path d="M337.33 251.303C336.391 249.547 334.63 245.909 333.378 241.286L334.497 240.984C335.713 245.498 337.434 249.043 338.349 250.752L337.33 251.303Z" fill="black"/>
<path d="M417.298 268.312C407.93 268.312 399.332 263.197 394.86 254.958L395.879 254.402C400.149 262.264 408.359 267.154 417.298 267.154V268.312Z" fill="black"/>
<path d="M260.235 93.9612C259.314 93.9612 258.184 93.463 256.985 92.5013C255.664 91.4468 253.619 89.7957 251.945 88.4516L252.675 87.5478C254.349 88.8977 256.388 90.5431 257.709 91.5975C258.943 92.5882 260.142 93.0285 260.693 92.6925C261.191 92.3912 261.307 91.3657 261.023 89.871C260.681 88.0866 260.768 86.6556 261.29 85.6069L262.327 86.1226C262.049 86.6845 261.794 87.7506 262.159 89.6508C262.558 91.7365 262.269 93.0922 261.29 93.6831C260.983 93.8685 260.623 93.9612 260.235 93.9612Z" fill="black"/>
<path d="M302.632 100.288L301.804 99.4767L317.319 83.5908C322.765 78.0116 331.594 77.7104 337.411 82.9014L336.64 83.7646C331.287 78.9849 323.165 79.263 318.153 84.3961L302.632 100.288Z" fill="black"/>
<path d="M337.201 103.194L321.459 119.012L322.28 119.829L338.022 104.011L337.201 103.194Z" fill="black"/>
<path d="M88.0621 253.446L84.528 248.215C83.2824 246.569 81.4343 245.497 79.3544 245.225C77.2745 244.959 75.2178 245.521 73.5666 246.813L72.854 245.903C74.7543 244.414 77.1123 243.765 79.505 244.078C81.8978 244.391 84.0124 245.619 85.4724 247.543L89.0238 252.797L88.0621 253.446Z" fill="black"/>
<path d="M107.406 281.483L106.72 294.976L107.877 295.034L108.564 281.541L107.406 281.483Z" fill="black"/>
<path d="M142.276 264.939L141.153 265.223L146.817 287.695L147.94 287.412L142.276 264.939Z" fill="black"/>
</svg>
